<?xml version="1.0" encoding="UTF-8"?>
<svg width="100%" viewBox="0 0 578 480" version="1.1" xmlns="http://www.w3.org/2000/svg" xmlns:xlink="http://www.w3.org/1999/xlink">
    <g stroke="none" stroke-width="1" fill="none" fill-rule="evenodd">
        <g class="theme__highlight" id="Group" transform="translate(-18.000000, -57.000000)">
            <g transform="translate(310.086553, 260.673914) rotate(-17.000000) translate(-310.086553, -260.673914) translate(44.586553, 69.673914)">
                <path d="M255.388492,110.074069 C256.401226,106.101674 257.502741,101.619523 258.693056,96.6275442 C260.288827,89.9351537 262.123935,82.1274819 264.198437,73.2042945 C261.804781,73.0449519 259.969672,72.3279208 258.693056,71.0531798 C257.41644,69.7784387 256.578673,68.2248714 256.17973,66.3924311 C255.780787,64.5599908 255.701,62.6080729 255.940366,60.5366187 C256.179731,58.4651645 256.698349,56.5530816 257.496234,54.8003126 C259.411159,55.1189979 261.246267,55.3181732 263.001615,55.3978445 C264.756962,55.4775158 266.751646,55.5173509 268.985724,55.5173509 L275.209198,32.5721267 C277.2837,32.0940988 279.398064,31.8949235 281.552354,31.9745948 C283.706645,32.0542661 285.900796,32.4924518 288.134875,33.289165 C290.847685,34.4045634 292.802474,36.117471 293.999302,38.4279391 C295.19613,40.7384073 295.714748,43.3276862 295.555171,46.1958536 C295.395594,47.9486225 295.156232,49.4623548 294.837078,50.7370958 L293.87962,54.5612999 C296.752007,54.4019572 298.866371,54.6011325 300.222776,55.1588318 C301.579181,55.716531 302.456842,56.5132322 302.855784,57.5489593 C303.254727,58.5846864 303.334514,59.8195732 303.095149,61.2536569 C302.855783,62.6877406 302.736102,64.1218028 302.736102,65.5558865 C302.736102,66.8306275 302.416953,68.2646897 301.778645,69.858116 C301.140337,71.4515423 300.422251,73.1246148 299.624365,74.8773838 C297.23071,73.7619854 295.27592,73.1644595 293.759938,73.0847882 C292.243956,73.0051168 290.368954,73.0449519 288.134875,73.2042945 C283.985872,88.0231592 280.674697,100.013512 278.201253,109.175714 C275.727809,118.337915 273.773019,125.627731 272.336826,131.045381 C270.900632,136.46303 269.823503,140.446536 269.105407,142.996018 C268.38731,145.5455 267.788905,147.537253 267.310174,148.971337 C265.714403,153.273588 264.956424,156.340888 265.036212,158.173328 C265.116001,160.005768 265.674512,160.96181 266.711763,161.041481 C267.749014,161.121152 269.185186,160.523626 271.020322,159.248885 C272.855458,157.974144 274.73046,156.420577 276.645385,154.588137 C278.560309,152.755696 280.315631,150.803778 281.911401,148.732324 C283.507172,146.66087 284.703982,144.908127 285.501867,143.474044 C289.012562,137.419024 292.204055,131.443765 295.076442,125.548087 C297.948829,119.65241 300.103087,115.111213 301.53928,111.92436 C302.496743,110.808962 303.533978,110.131766 304.651017,109.892752 C304.701266,109.882 304.751352,109.871974 304.801278,109.862673 C305.799174,105.94286 306.882738,101.531173 308.051986,96.6275442 C309.647757,89.9351537 311.482865,82.1274819 313.557367,73.2042945 C311.163711,73.0449519 309.328603,72.3279208 308.051986,71.0531798 C306.77537,69.7784387 305.937603,68.2248714 305.53866,66.3924311 C305.139718,64.5599908 305.05993,62.6080729 305.299296,60.5366187 C305.538662,58.4651645 306.057279,56.5530816 306.855164,54.8003126 C308.770089,55.1189979 310.605198,55.3181732 312.360545,55.3978445 C314.115893,55.4775158 316.110576,55.5173509 318.344655,55.5173509 L324.568129,32.5721267 C326.64263,32.0940988 328.756995,31.8949235 330.911285,31.9745948 C333.065575,32.0542661 335.259727,32.4924518 337.493805,33.289165 C340.206615,34.4045634 342.161405,36.117471 343.358233,38.4279391 C344.555061,40.7384073 345.073678,43.3276862 344.914101,46.1958536 C344.754524,47.9486225 344.515162,49.4623548 344.196008,50.7370958 L343.23855,54.5612999 C346.110937,54.4019572 348.225302,54.6011325 349.581707,55.1588318 C350.938112,55.716531 351.815772,56.5132322 352.214715,57.5489593 C352.613657,58.5846864 352.693445,59.8195732 352.454079,61.2536569 C352.214714,62.6877406 352.095033,64.1218028 352.095033,65.5558865 C352.095033,66.8306275 351.775883,68.2646897 351.137575,69.858116 C350.499267,71.4515423 349.781181,73.1246148 348.983296,74.8773838 C346.58964,73.7619854 344.63485,73.1644595 343.118868,73.0847882 C341.602886,73.0051168 339.727884,73.0449519 337.493805,73.2042945 C333.344802,88.0231592 330.033628,100.013512 327.560183,109.175714 C325.086739,118.337915 323.13195,125.627731 321.695756,131.045381 C320.259563,136.46303 319.182434,140.446536 318.464337,142.996018 C317.74624,145.5455 317.147835,147.537253 316.669104,148.971337 C315.073334,153.273588 314.315354,156.340888 314.395142,158.173328 C314.474931,160.005768 315.033442,160.96181 316.070693,161.041481 C317.107944,161.121152 318.544116,160.523626 320.379252,159.248885 C322.214388,157.974144 324.08939,156.420577 326.004315,154.588137 C327.91924,152.755696 329.674561,150.803778 331.270331,148.732324 C332.866102,146.66087 334.062912,144.908127 334.860797,143.474044 C338.371492,137.419024 341.562985,131.443765 344.435372,125.548087 C347.307759,119.65241 349.462017,115.111213 350.898211,111.92436 C351.041137,111.757858 351.185841,111.60112 351.332323,111.454147 C352.651942,101.85117 354.757912,92.2482994 357.650281,82.6452982 C360.841822,72.0490132 365.030657,61.8910729 370.216911,52.1711724 C375.403165,42.4512718 381.506896,33.8468988 388.528286,26.3577951 C390.602788,24.2863409 392.757046,22.7327736 394.991125,21.6970465 C397.225203,20.6613194 399.299674,20.1434636 401.214599,20.1434636 C404.884871,20.1434636 407.837002,21.3385154 410.071081,23.7286549 C412.305159,26.1187943 413.501969,29.7836199 413.661546,34.7232415 C413.661546,41.5749746 412.743992,48.5461102 410.908856,55.6368573 C409.07372,62.7276044 406.480632,69.4995646 403.129514,75.9529412 C399.778396,82.4063177 395.749135,88.2222366 391.041612,93.4008721 C386.334089,98.5795076 381.187807,102.602849 375.60261,105.471016 C373.847262,112.641434 372.610559,120.010921 371.892462,127.579696 C371.174365,135.148471 370.974897,142.995977 371.294051,151.122452 C371.453628,154.309304 372.052033,156.619738 373.089284,158.053821 C374.126535,159.487905 375.443026,160.204936 377.038796,160.204936 C380.868645,160.204936 384.858012,157.655492 389.007015,152.556528 C389.645323,151.759815 390.562878,150.644433 391.759706,149.21035 C392.956533,147.776266 394.312918,145.665008 395.8289,142.876512 C396.078572,142.417266 396.335817,141.93425 396.600637,141.427465 C397.360531,136.510675 398.715662,131.735444 400.666055,127.10167 C402.751765,122.146408 405.32366,117.579612 408.381803,113.401172 C409.160355,111.663625 410.089521,110.477551 411.169313,109.842941 C414.211725,106.191819 417.532501,102.902103 421.13171,99.9737227 C425.44029,96.4681849 429.908381,93.6797306 434.536115,91.6082764 C439.004273,89.5368222 443.552151,88.5011107 448.179885,88.5011107 C451.371426,88.5011107 454.562919,88.9791314 457.75446,89.9351872 C460.946001,90.891243 463.738558,92.3253051 466.132214,94.2374167 C468.52587,96.1495283 470.400872,98.579467 471.757277,101.527306 C473.113682,104.475144 473.552512,107.940795 473.073781,111.92436 C471.47801,120.688205 468.286517,127.539835 463.499206,132.479457 C458.711894,137.419079 453.046994,141.322914 446.504334,144.191082 C441.8766,146.262536 437.248935,147.935609 432.6212,149.21035 C427.993466,150.485091 423.764737,151.441132 419.934888,152.078503 C420.254042,155.265355 421.450852,158.013974 423.525354,160.324443 C425.599855,162.634911 428.15305,163.790128 431.185014,163.790128 C436.451057,163.790128 441.677127,162.31623 446.863381,159.368392 C452.049635,156.420553 456.916662,152.596387 461.464608,147.89578 C466.012554,143.195172 470.201389,137.817439 474.031238,131.762419 C477.861088,125.707399 481.052581,119.572799 483.605814,113.358437 C484.244122,111.765011 485.161676,110.689464 486.358504,110.131765 C487.555332,109.574065 488.672355,109.45456 489.709605,109.773246 C490.746856,110.091931 491.624517,110.808962 492.342614,111.92436 C493.06071,113.039759 493.260179,114.394151 492.941025,115.987577 C491.983562,122.361282 489.589942,129.053573 485.760093,136.064648 C481.930244,143.075724 477.063217,149.529004 471.158866,155.424681 C465.254515,161.320359 458.472592,166.259906 450.812893,170.243472 C443.153195,174.227038 434.9351,176.378131 426.158362,176.696816 C415.785854,177.015501 407.886908,174.266882 402.461288,168.450876 C400.479748,166.326759 398.945201,163.89979 397.857644,161.169957 C397.53926,161.653556 397.222058,162.128592 396.90604,162.595064 C393.874076,167.216 390.443221,170.721485 386.613371,173.111625 C382.783522,175.501764 378.95373,176.696816 375.123881,176.696816 C369.059953,176.696816 363.634415,173.988032 358.847103,168.570383 C354.059791,163.152733 351.187448,154.946711 350.229985,143.952069 C350.043995,141.834893 349.914366,139.676598 349.841099,137.47718 C347.999443,141.209193 346.117755,144.881219 344.196008,148.493311 C343.078969,150.405423 341.483222,152.954867 339.40872,156.141719 C337.334219,159.328572 334.940599,162.435707 332.227789,165.463217 C329.514979,168.490727 326.562848,171.119841 323.371307,173.350638 C320.179766,175.581434 316.908485,176.696816 313.557367,176.696816 C308.131747,176.696816 304.062594,175.222919 301.349784,172.27508 C298.636974,169.327242 296.881653,165.702251 296.083767,161.4 C295.285882,157.097749 295.166201,152.556552 295.724721,147.776273 C295.773948,147.354946 295.824725,146.937951 295.877051,146.52529 C295.531706,147.183262 295.185049,147.839269 294.837078,148.493311 C293.720038,150.405423 292.124292,152.954867 290.04979,156.141719 C287.975288,159.328572 285.581668,162.435707 282.868859,165.463217 C280.156049,168.490727 277.203917,171.119841 274.012376,173.350638 C270.820835,175.581434 267.549555,176.696816 264.198437,176.696816 C258.772817,176.696816 254.703663,175.222919 251.990853,172.27508 C249.278043,169.327242 247.522722,165.702251 246.724837,161.4 C246.065269,157.843564 245.869146,154.123847 246.136468,150.240771 C244.651896,152.781272 243.036174,155.505111 241.289271,158.412341 C239.13498,161.99755 236.781254,165.22419 234.228021,168.092357 C231.674789,170.960524 228.962019,173.191288 226.089632,174.784714 C223.217245,176.37814 220.265114,176.537481 217.23315,175.26274 C212.605416,172.8726 209.214454,169.765465 207.060164,165.941242 C204.905874,162.117019 203.66917,158.213183 203.350016,154.229617 C199.520167,158.531868 195.411119,162.435704 191.02275,165.941242 C186.634381,169.44678 181.887035,171.836884 176.78057,173.111625 C175.503953,173.43031 174.227356,173.66932 172.95074,173.828663 C171.674123,173.988006 170.557101,174.067676 169.599638,174.067676 C162.897402,174.067676 157.910694,171.717407 154.639364,167.0168 C151.368035,162.316192 149.732395,156.460438 149.732395,149.449362 C149.732395,146.26251 150.051544,143.03587 150.689852,139.769346 C151.32816,136.502822 152.285608,133.276182 153.562225,130.089329 C155.157995,126.424449 157.471828,122.201933 160.503792,117.421654 C163.535756,112.641375 167.28576,108.100178 171.753918,103.797927 C176.222075,99.4956757 181.408252,95.9105203 187.312602,93.0423529 C193.216953,90.1741856 199.759514,88.8197935 206.940482,88.9791362 C209.972446,89.1384788 212.725109,90.0945202 215.198553,91.8472892 C217.671997,93.6000581 219.786362,95.6714813 221.541709,98.0616207 C223.297057,100.45176 224.573654,102.961369 225.371539,105.590522 C226.169424,108.219676 226.488574,110.569944 226.328997,112.641399 C226.328997,113.438112 225.770485,114.075473 224.653446,114.553501 C223.536407,115.031529 222.339597,115.270539 221.06298,115.270539 C219.46721,115.270539 217.991144,114.991693 216.634739,114.433994 C215.278334,113.876295 214.600142,112.960089 214.600142,111.685348 C214.600142,111.20732 214.440567,110.450454 214.121413,109.414726 C213.802259,108.378999 213.363429,107.383123 212.804909,106.427067 C212.246389,105.471011 211.528304,104.634475 210.65063,103.917433 C209.772956,103.200391 208.775614,102.921546 207.658575,103.080889 C204.786188,103.240231 201.913844,104.236108 199.041457,106.068548 C196.16907,107.900988 193.376514,110.291092 190.663704,113.23893 C187.950894,116.186769 185.437593,119.532914 183.123726,123.277466 C180.809859,127.022018 178.855069,130.806349 177.259298,134.630572 C173.589026,143.235074 171.753918,150.007034 171.753918,154.946656 C171.753918,159.089564 173.110302,161.160987 175.823112,161.160987 C176.142266,161.160987 176.820459,161.001647 177.857709,160.682962 C178.89496,160.364276 179.812515,160.045596 180.6104,159.726911 L180.371035,159.726911 C185.477501,156.380715 190.344528,152.078529 194.972263,146.820222 C199.599997,141.561915 203.748938,136.383357 207.419211,131.284393 C208.057519,129.212939 208.855392,127.380526 209.812854,125.7871 C210.770317,124.193674 211.089466,122.281591 210.770312,120.050794 C210.610735,118.776053 211.089459,117.859846 212.206498,117.302147 C213.323538,116.744448 214.679922,116.465603 216.275693,116.465603 C217.871463,116.465603 219.427316,116.585108 220.943298,116.824122 C222.45928,117.063136 223.616196,117.262311 224.414082,117.421654 C226.64816,118.377709 228.16412,119.612596 228.962005,121.126351 C229.75989,122.640106 230.158827,124.751364 230.158827,127.460189 C230.158827,130.647042 229.879571,133.435496 229.321052,135.825636 C228.762532,138.215775 228.004552,140.844889 227.04709,143.713056 L224.653446,151.600477 C223.855561,155.265358 223.456624,157.814802 223.456624,159.248885 C223.456624,160.523626 223.895454,160.882142 224.773128,160.324443 C225.650802,159.766743 226.767825,158.651362 228.12423,156.978264 C229.480635,155.305166 231.036487,153.273578 232.791835,150.883439 C234.547183,148.493299 236.302504,146.023526 238.057851,143.474044 L237.818487,143.474044 C241.329182,136.940996 244.400994,130.846231 247.034016,125.189568 C249.667037,119.532905 251.621827,115.111213 252.898443,111.92436 C253.675862,111.018704 254.505873,110.401944 255.388492,110.074069 Z M441.78189,317.342999 C441.542741,317.883758 441.298634,318.433925 441.049568,318.993501 C438.815489,324.012794 436.342082,329.071846 433.629272,334.17081 C431.873925,337.19832 429.919135,340.50463 427.764845,344.08984 C425.610555,347.675049 423.256829,350.901689 420.703596,353.769856 C418.150363,356.638023 415.437594,358.868787 412.565207,360.462213 C409.69282,362.055639 406.740689,362.21498 403.708725,360.940239 C399.08099,358.550099 395.690029,355.442964 393.535738,351.618741 C391.381448,347.794518 390.144745,343.890682 389.82559,339.907116 C385.995741,344.209367 381.886694,348.113203 377.498325,351.618741 C373.109956,355.124279 368.36261,357.514383 363.256144,358.789124 C361.979528,359.107809 360.70293,359.346819 359.426314,359.506162 C358.149698,359.665505 357.032675,359.745175 356.075213,359.745175 C349.372976,359.745175 344.386268,357.394906 341.114939,352.694299 C337.843609,347.993691 336.207969,342.137937 336.207969,335.126861 C336.207969,331.940009 336.527118,328.713369 337.165426,325.446845 C337.803735,322.180321 338.761183,318.953681 340.037799,315.766828 C341.63357,312.101948 343.947402,307.879432 346.979366,303.099153 C350.01133,298.318874 353.761335,293.777677 358.229492,289.475426 C362.69765,285.173175 367.883826,281.588019 373.788177,278.719852 C379.692528,275.851685 386.235089,274.497292 393.416056,274.656635 C396.44802,274.815978 399.200683,275.772019 401.674127,277.524788 C404.147572,279.277557 406.261936,281.34898 408.017284,283.73912 C409.772631,286.129259 411.049228,288.638868 411.847114,291.268021 C412.644999,293.897175 412.964148,296.247443 412.804571,298.318898 C412.804571,299.115611 412.24606,299.752972 411.12902,300.231 C410.011981,300.709027 408.815171,300.948038 407.538555,300.948038 C405.942784,300.948038 404.466719,300.669192 403.110314,300.111493 C401.753909,299.553794 401.075716,298.637588 401.075716,297.362847 C401.075716,296.884819 400.916142,296.127953 400.596988,295.092225 C400.277834,294.056498 399.839003,293.060622 399.280484,292.104566 C398.721964,291.14851 398.003878,290.311974 397.126204,289.594932 C396.24853,288.87789 395.251189,288.599045 394.134149,288.758387 C391.261762,288.91773 388.389419,289.913607 385.517032,291.746047 C382.644645,293.578487 379.852088,295.968591 377.139278,298.916429 C374.426468,301.864268 371.913167,305.210413 369.5993,308.954965 C367.285433,312.699517 365.330643,316.483848 363.734873,320.308071 C360.064601,328.912573 358.229492,335.684533 358.229492,340.624155 C358.229492,344.767063 359.585877,346.838486 362.298687,346.838486 C362.617841,346.838486 363.296033,346.679146 364.333284,346.360461 C365.370535,346.041775 366.288089,345.723095 367.085974,345.40441 L366.84661,345.40441 C371.953076,342.058214 376.820103,337.756028 381.447837,332.497721 C386.075572,327.239414 390.224513,322.060856 393.894785,316.961892 C394.533093,314.890438 395.330966,313.058025 396.288429,311.464599 C397.245891,309.871173 397.56504,307.95909 397.245886,305.728293 C397.086309,304.453552 397.565033,303.537345 398.682073,302.979646 C399.799112,302.421947 401.155497,302.143102 402.751267,302.143102 C404.347038,302.143102 405.902891,302.262607 407.418873,302.501621 C408.934855,302.740635 410.091771,302.93981 410.889656,303.099153 C413.123735,304.055208 414.639694,305.290095 415.437579,306.80385 C416.235465,308.317605 416.634401,310.428863 416.634401,313.137688 C416.634401,316.324541 416.355146,319.112995 415.796626,321.503135 C415.238106,323.893274 414.480127,326.522388 413.522664,329.390555 L411.12902,337.277976 C410.331135,340.942857 409.932199,343.492301 409.932199,344.926384 C409.932199,346.201125 410.371029,346.559641 411.248703,346.001942 C412.126376,345.444242 413.243399,344.328861 414.599804,342.655763 C415.956209,340.982665 417.512062,338.951077 419.267409,336.560938 C421.022757,334.170798 422.778078,331.701025 424.533426,329.151543 L424.294061,329.151543 C427.804757,322.618495 430.876569,316.52373 433.50959,310.867067 C434.691764,308.327339 435.737217,306.036561 436.645956,303.99472 L435.873314,302.143102 C436.192468,301.027703 436.750979,299.513971 437.548864,297.601859 C438.346749,295.689748 439.264304,293.73783 440.301555,291.746047 C441.338805,289.754264 442.455828,287.762511 443.652656,285.770728 C444.849484,283.778945 446.165975,282.145708 447.602168,280.870967 L447.362804,280.870967 C449.916037,278.162142 452.030401,277.445111 453.70596,278.719852 C455.381519,279.994593 457.096947,283.181398 458.852294,288.280362 L464.836404,306.923357 L469.863056,299.752974 C472.256712,296.566121 474.650331,293.180141 477.043987,289.594932 L484.464283,278.480839 L484.224919,278.480839 L484.224919,278.241826 C485.182381,277.285771 486.419085,276.56874 487.935067,276.090712 C489.451049,275.612684 490.847327,275.373673 492.123943,275.373673 C494.038868,275.373673 495.514934,275.891529 496.552184,276.927256 C497.589435,277.962983 497.709116,279.675891 496.911231,282.06603 C492.283496,289.077106 487.775512,295.570221 483.387143,301.54557 C478.998774,307.520918 474.49079,313.615683 469.863056,319.830045 C471.139672,323.016898 472.416269,326.004527 473.692886,328.793023 C474.969502,331.581519 476.086525,333.613108 477.043987,334.887849 C478.799335,337.596673 480.395081,339.747767 481.831275,341.341193 C483.267468,342.934619 485.182364,343.65165 487.57602,343.492308 C490.28883,343.492308 492.722344,342.735442 494.876634,341.221687 C497.030924,339.707932 498.905926,337.995024 500.501697,336.082912 C502.416621,333.692773 504.331517,330.904319 506.246442,327.717466 C508.161366,324.530613 510.036369,321.224303 511.871505,317.798437 C513.706641,314.37257 515.382175,310.90692 516.898157,307.401382 C518.414139,303.895844 519.810417,300.629369 521.087034,297.601859 C522.044496,296.486461 523.081731,295.809265 524.198771,295.570251 C525.31581,295.331237 526.353045,295.450742 527.310507,295.92877 C528.26797,296.406798 529.025949,297.203499 529.584469,298.318898 C530.142989,299.434296 530.26267,300.788688 529.943516,302.382114 L527.549872,307.879408 C524.996639,314.253113 522.28387,320.626723 519.411483,327.000428 C516.539096,333.374133 513.188028,339.269722 509.358179,344.687371 C505.847484,349.626993 502.177267,353.809674 498.347417,357.235541 C494.517568,360.661408 489.730328,363.011676 483.985554,364.286417 C483.187669,364.44576 482.230221,364.565265 481.113182,364.644936 C479.996142,364.724608 479.038694,364.764443 478.240809,364.764443 C474.41096,364.764443 470.581168,363.768566 466.751319,361.776783 C462.92147,359.785 459.809764,356.47869 457.416108,351.857754 L452.62882,342.297244 L452.150092,343.014282 C449.437282,346.679163 446.764406,350.343988 444.131385,354.008869 C441.498363,357.673749 438.825488,361.497915 436.112678,365.481481 C434.995639,366.915565 433.758935,367.752101 432.40253,367.991115 C431.046125,368.230129 429.809421,368.070788 428.692382,367.513089 C427.575343,366.95539 426.817363,366.079019 426.41842,364.883949 C426.019478,363.688879 426.218946,362.294652 427.016831,360.701226 L432.282848,353.052818 L445.926618,333.453772 L445.687253,333.453772 L447.12344,332.258708 L447.12344,332.019696 L447.602168,331.063645 C445.527667,326.442708 443.852133,322.538872 442.575516,319.35202 C442.299809,318.663764 442.035267,317.994091 441.78189,317.342999 Z M150.650705,222.790868 C141.554813,227.889832 133.695761,230.678286 127.073314,231.156314 C120.450866,231.634342 114.905647,230.638466 110.437489,228.168655 C105.969332,225.698844 102.698051,221.994183 100.623549,217.054562 C98.5490477,212.11494 97.5118124,206.617702 97.5118124,200.562682 C97.5118124,196.260431 98.1102174,194.069503 99.3070453,193.989831 C100.503873,193.91016 102.059726,194.985707 103.974651,197.216503 C106.687461,200.403356 110.437465,202.434944 115.224777,203.311329 C120.012088,204.187713 125.357839,204.307218 131.26219,203.669848 C137.166541,203.032477 143.46974,201.877261 150.171976,200.204163 C156.874213,198.531065 163.456667,196.818158 169.919538,195.065389 C176.382409,193.31262 182.565927,191.719217 188.470278,190.285134 C194.374629,188.85105 199.520911,188.014514 203.90928,187.7755 C208.297649,187.536486 211.728504,188.173847 214.201949,189.687602 C216.675393,191.201357 217.752522,194.029646 217.433368,198.172555 C217.114214,201.51875 216.116872,206.259122 214.441313,212.393813 C212.765754,218.528505 210.65139,225.49964 208.098157,233.307429 C205.544924,241.115218 202.752368,249.560251 199.720404,258.642781 C196.68844,267.725311 193.696415,276.807704 190.744239,285.890234 C187.792064,294.972764 185.039401,303.776313 182.486168,312.301144 C179.932935,320.825974 177.858465,328.593811 176.262694,335.604887 C174.666924,342.615963 173.789263,348.591222 173.629686,353.530843 C173.470109,358.470465 174.267982,361.73694 176.02333,363.330366 C177.459523,364.605107 179.693568,363.609231 182.725532,360.342707 C185.757496,357.076183 189.148458,352.614656 192.898519,346.957993 C196.648579,341.301329 200.558159,334.887884 204.627373,327.717466 C208.696588,320.547048 212.446593,313.735252 215.877499,307.281876 C219.308406,300.828499 222.220643,295.211756 224.614299,290.431477 L228.922858,281.827018 C243.923101,249.799149 257.726309,219.126152 270.332896,189.807108 C271.449936,188.213682 273.12547,188.213682 275.359548,189.807108 C277.593627,191.400534 279.747885,193.671133 281.822387,196.618972 C283.896888,199.56681 285.612316,202.71378 286.968721,206.059975 C288.325126,209.406171 288.604381,211.955614 287.806496,213.708383 L285.891581,216.815549 L286.609674,216.815549 C284.535173,224.14531 281.862297,232.590343 278.590967,242.150901 C275.319638,251.711459 271.96857,261.630389 268.537663,271.907988 C265.106757,282.185588 261.795583,292.383364 258.604042,302.501621 C255.4125,312.619878 252.819412,321.861612 250.824699,330.2271 C248.829986,338.592588 247.553389,345.762899 246.994869,351.738248 C246.436349,357.713596 247.194329,361.577597 249.268831,363.330366 C250.705024,364.605107 252.939069,363.649066 255.971033,360.462213 C259.002997,357.27536 262.354065,352.853669 266.024337,347.197005 C269.69461,341.540342 273.524401,335.166732 277.513828,328.075985 C281.503254,320.985238 285.213365,314.213278 288.644271,307.759901 C292.075178,301.306525 294.947522,295.729616 297.261389,291.029009 C299.575256,286.328401 300.971535,283.500112 301.450266,282.544056 C308.950387,266.609793 316.290822,250.914779 323.471789,235.458544 C330.652756,220.002309 337.354892,204.785316 343.578397,189.807108 C344.695436,188.213682 346.37097,188.213682 348.605049,189.807108 C350.839128,191.400534 352.993386,193.671133 355.067887,196.618972 C357.142389,199.56681 358.857817,202.71378 360.214222,206.059975 C361.570627,209.406171 361.849882,211.955614 361.051997,213.708383 C355.785954,225.340395 350.440203,237.171408 345.014583,249.201777 C339.588964,261.232146 334.083638,273.102994 328.498441,284.814677 C322.913244,296.52636 317.248344,307.799683 311.50357,318.634981 C305.758796,329.47028 300.014108,339.508716 294.269334,348.750588 C292.35441,351.937441 290.080471,355.602266 287.44745,359.745175 C284.814428,363.888083 281.822403,367.712249 278.471285,371.217787 C275.120167,374.723325 271.489844,377.551614 267.580206,379.70274 C263.670568,381.853865 259.481733,382.451391 255.013576,381.495335 C251.822035,380.698622 248.590648,378.945879 245.319318,376.237055 C242.047989,373.52823 239.055964,370.819446 236.343154,368.110621 C230.757957,362.374286 227.446783,355.203976 226.409532,346.599473 C225.372281,337.994971 225.731324,328.434557 227.486672,317.917943 C222.69936,327.478501 217.872227,336.481225 213.005127,344.926384 C208.138027,353.371544 203.430574,360.462184 198.882628,366.198519 C194.334682,371.934854 190.06606,376.037865 186.076634,378.507676 C182.087207,380.977487 178.496778,381.096992 175.305237,378.866195 C173.869043,377.910139 172.712127,377.113438 171.834453,376.476067 C170.956779,375.838697 170.119012,375.161501 169.321127,374.444459 C168.523242,373.727417 167.645581,372.890881 166.688119,371.934825 C165.730657,370.978769 164.533847,369.704047 163.097653,368.110621 C159.267804,363.967713 156.634822,358.789155 155.198628,352.574792 C153.762435,346.36043 153.203924,339.548634 153.523078,332.139202 C153.842232,324.72977 154.839574,316.762758 156.515133,308.237927 C158.190692,299.713096 160.265162,291.068888 162.738607,282.305043 C165.212051,273.541198 167.92482,264.73765 170.876996,255.894134 L179.374431,230.439276 C182.406395,221.516089 183.643099,215.54083 183.084579,212.51332 C182.526059,209.48581 180.730844,208.211088 177.69888,208.689116 C174.666916,209.167143 170.757337,210.880051 165.970026,213.82789 C161.182714,216.775728 156.076325,219.763358 150.650705,222.790868 Z M441.956411,133.674521 C444.19049,132.559122 446.424535,131.20473 448.658614,129.611304 C450.892693,128.017878 452.847482,126.2253 454.523041,124.233517 C456.1986,122.241734 457.515091,120.090641 458.472554,117.780173 C459.430016,115.469705 459.90874,113.119436 459.90874,110.729297 C459.749163,106.905073 458.273097,104.59464 455.480499,103.797927 C452.6879,103.001214 449.456514,103.957255 445.786241,106.66608 C439.084005,111.287016 434.01751,116.226564 430.586603,121.48487 C427.155696,126.743177 424.403034,132.877777 422.328532,139.888852 C425.67965,139.251482 429.070611,138.37511 432.501518,137.259712 C435.932425,136.144314 439.084024,134.949262 441.956411,133.674521 Z M401.932692,41.893624 C397.464534,49.2233851 393.315593,56.7920465 389.485744,64.5998355 C385.655895,72.4076244 382.304827,80.6933169 379.43244,89.4571617 C382.304827,86.9076796 385.017596,83.8403799 387.570829,80.2551707 C390.124062,76.6699615 392.398001,72.8059607 394.392714,68.6630522 C396.387427,64.5201438 398.142748,60.2577924 399.65873,55.87587 C401.174712,51.4939477 402.411416,47.2315962 403.368878,43.0886878 C403.528455,42.2919746 403.528455,41.6546137 403.368878,41.1765858 C403.209301,40.6985579 402.810364,40.9375682 402.172056,41.893624 L401.932692,41.893624 Z M23.0188747,86.1109831 C23.3380288,88.34178 22.9789859,89.7360071 21.941735,90.2937063 C20.9044842,90.8514055 19.0294819,90.7319003 16.316672,89.9351872 C11.5293605,88.6604461 7.85914331,86.0313321 5.30591047,82.0477664 C2.75267763,78.0642006 1.23671837,73.6026738 0.75798721,68.6630522 C0.279256052,63.7234307 0.757980029,58.7838832 2.1941735,53.8442616 C3.63036697,48.90464 5.94419953,44.7617938 9.13574058,41.4155985 C15.0400915,32.8110964 23.0188245,25.5212804 33.0721788,19.5459317 C43.1255331,13.570583 53.9766099,9.02938617 65.6257347,5.92220485 C77.2748596,2.81502354 89.0833843,1.06228089 101.051663,0.663924311 C113.019942,0.265567733 123.910913,1.34111436 133.724901,3.89059646 C143.53889,6.44007856 151.717091,10.3837495 158.259751,15.7217277 C164.80241,21.0597058 168.39284,27.8715011 169.031148,36.157318 C169.509879,41.8936527 168.512537,48.028252 166.039093,54.5612999 C163.565649,61.0943478 160.015112,67.4679574 155.387378,73.68232 C150.759643,79.8966827 145.214424,85.7524365 138.751553,91.2497573 C132.288683,96.7470781 125.387079,101.32811 118.046534,104.992991 L122.355093,106.427067 C129.376484,109.295234 134.323298,113.03973 137.195685,117.660666 C140.068072,122.281603 141.185094,127.38049 140.546786,132.957483 C139.908478,138.534475 137.794114,144.310558 134.20363,150.285907 C130.613146,156.261256 125.945588,161.997504 120.200814,167.494825 C114.45604,172.992146 107.873585,177.971528 100.453252,182.433122 C93.0329194,186.894716 85.1339737,190.400201 76.7561785,192.949683 C68.3783832,195.499165 59.721458,196.853557 50.785143,197.0129 C41.8488281,197.172243 33.1520092,195.65851 24.6944254,192.471658 C16.5559957,189.284805 11.05067,184.902948 8.17828305,179.325956 C5.3058961,173.748964 4.7473848,167.136344 6.50273238,159.487898 C6.66230943,158.850527 7.02135241,157.814816 7.5798721,156.380732 C8.13839178,154.946649 8.77669041,153.671927 9.49478715,152.556528 C10.2128839,151.44113 10.9309699,150.843604 11.6490666,150.763933 C12.3671633,150.684261 13.0453556,151.680138 13.6836638,153.751592 C14.4815491,156.301074 15.5985717,158.571672 17.0347652,160.563455 C18.4709587,162.555238 19.9869179,164.228311 21.5826884,165.582723 C23.178459,166.937136 24.6944182,168.052517 26.1306117,168.928902 C27.5668052,169.805286 28.6838278,170.402812 29.481713,170.721497 C35.0669099,173.430322 41.4498962,174.744879 48.6308636,174.665208 C55.811831,174.585536 63.0724779,173.58966 70.4130224,171.677548 C77.7535668,169.765437 84.8945328,167.136323 91.8361345,163.790128 C98.7777363,160.443932 104.80168,156.699437 109.908145,152.556528 C115.014611,148.41362 118.884297,144.111433 121.517318,139.64984 C124.150339,135.188246 124.908319,130.96573 123.79128,126.982164 C122.67424,123.476626 119.08381,120.528831 113.019882,118.138692 C106.955954,115.748552 99.7750947,113.91614 91.477088,112.641399 C90.3600486,112.800741 89.2829197,112.880411 88.2456688,112.880411 L82.1418771,112.880411 C79.5886442,123.397025 77.6737483,132.638759 76.3971319,140.605891 C75.1205155,148.573022 74.7215788,155.743333 75.20031,162.117038 C74.7215788,163.232437 73.1258323,163.551117 70.4130224,163.073089 C67.7002125,162.595061 64.8278686,161.758525 61.7959046,160.563455 C58.7639406,159.368386 56.0112777,157.974159 53.5378334,156.380732 C51.0643891,154.787306 49.8276855,153.353244 49.8276855,152.078503 C50.1468396,144.111371 50.7851383,136.502875 51.7426006,129.252785 C52.7000629,122.002695 53.9766602,115.03156 55.5724307,108.339169 C51.2638503,106.5864 47.6335268,103.877616 44.6813513,100.212735 C41.7291758,96.547855 39.8541736,91.5286374 39.0562883,85.1549321 C38.8967113,83.5615058 38.9366049,81.8087632 39.1759705,79.8966516 C39.4153361,77.98454 39.7743791,76.5106428 40.2531102,75.4749157 C40.7318414,74.4391886 41.2903527,74.080673 41.9286609,74.3993583 C42.5669691,74.7180436 43.2850551,76.311446 44.0829403,79.1796133 C44.8808256,82.8444938 46.4765722,85.9117935 48.870228,88.3816043 C51.2638838,90.8514151 54.7745263,92.7236629 59.4022608,93.9984039 C62.7533789,82.2070492 66.1044467,71.6507582 69.4555648,62.3292143 C72.8066829,53.0076704 74.9609408,44.7618129 75.9184031,37.5913945 C76.5567114,36.6353387 78.0726706,36.7150088 80.4663264,37.8304072 C82.8599822,38.9458057 85.3732831,40.459538 88.0063044,42.3716495 C90.6393258,44.2837611 92.9531584,46.3153492 94.9478715,48.4664747 C96.9425847,50.6176002 97.860139,52.2508377 97.7005619,53.3662361 C95.6260602,61.3333677 93.6712706,68.7426889 91.8361345,75.594422 C90.0009984,82.4461552 88.2855709,88.9791051 86.6898003,95.1934677 L92.4345455,94.4764295 C99.1367817,93.0423458 105.519768,90.4929019 111.583696,86.8280214 C117.647624,83.1631409 122.993375,78.7812842 127.62111,73.68232 C132.248844,68.5833558 135.958955,62.9666123 138.751553,56.831921 C141.544152,50.6972297 143.100005,44.3634551 143.419159,37.8304072 C143.578736,32.5721004 142.701075,28.4690892 140.786151,25.5212505 C138.871226,22.5734118 136.397819,20.4621536 133.365855,19.1874126 C130.333891,17.9126715 127.06261,17.2354755 123.551915,17.1558042 C120.04122,17.0761329 116.769939,17.1956381 113.737975,17.5143233 C103.684621,18.6297217 93.4319494,21.0994955 82.9796524,24.9237186 C72.5273555,28.7479418 62.9927696,33.6476542 54.3756088,39.6230029 C45.7584479,45.5983516 38.5775883,52.529652 32.8328144,60.4171123 C27.0880405,68.3045726 23.81676,76.8691105 23.0188747,86.1109831 Z" id="Combined-Shape"></path>
            </g>
            <g id="on-the-cut" transform="translate(74.881371, 421.828508)">
                <rect x="329.766037" y="0" width="144.002636" height="18.7005348" rx="8"></rect>
                <rect x="0" y="0" width="144.002636" height="18.7005348" rx="8"></rect>
                <path d="M79.3814532,94.1183529 C79.3814532,95.6719436 79.6752156,97.1046779 80.2627493,98.4165989 C80.850283,99.7285199 81.6451696,100.867803 82.647433,101.834481 C83.6496963,102.80116 84.816106,103.552051 86.146697,104.087176 C87.477288,104.622302 88.8856197,104.889861 90.3717344,104.889861 C91.857849,104.889861 93.2661807,104.622302 94.5967717,104.087176 C95.9273627,103.552051 97.1024125,102.80116 98.1219563,101.834481 C99.1415,100.867803 99.9450267,99.7285199 100.53256,98.4165989 C101.120094,97.1046779 101.413857,95.6719436 101.413857,94.1183529 C101.413857,92.5647623 101.120094,91.1320279 100.53256,89.820107 C99.9450267,88.508186 99.1415,87.3689032 98.1219563,86.4022246 C97.1024125,85.435546 95.9273627,84.6846551 94.5967717,84.1495294 C93.2661807,83.6144037 91.857849,83.3468449 90.3717344,83.3468449 C88.8856197,83.3468449 87.477288,83.6144037 86.146697,84.1495294 C84.816106,84.6846551 83.6496963,85.435546 82.647433,86.4022246 C81.6451696,87.3689032 80.850283,88.508186 80.2627493,89.820107 C79.6752156,91.1320279 79.3814532,92.5647623 79.3814532,94.1183529 Z M68.7540586,94.1183529 C68.7540586,91.2183171 69.2897431,88.516836 70.361128,86.0138289 C71.432513,83.5108217 72.9186054,81.3271965 74.8194497,79.4628877 C76.720294,77.5985789 78.9926328,76.1399518 81.6365345,75.0869626 C84.2804361,74.0339733 87.1921403,73.5074866 90.3717344,73.5074866 C93.5167677,73.5074866 96.4198318,74.0339733 99.0810138,75.0869626 C101.742196,76.1399518 104.031815,77.5985789 105.94994,79.4628877 C107.868064,81.3271965 109.362797,83.5108217 110.434182,86.0138289 C111.505567,88.516836 112.041251,91.2183171 112.041251,94.1183529 C112.041251,97.0183888 111.505567,99.7198698 110.434182,102.222877 C109.362797,104.725884 107.868064,106.909509 105.94994,108.773818 C104.031815,110.638127 101.742196,112.096754 99.0810138,113.149743 C96.4198318,114.202733 93.5167677,114.729219 90.3717344,114.729219 C87.1921403,114.729219 84.2804361,114.202733 81.6365345,113.149743 C78.9926328,112.096754 76.720294,110.638127 74.8194497,108.773818 C72.9186054,106.909509 71.432513,104.725884 70.361128,102.222877 C69.2897431,99.7198698 68.7540586,97.0183888 68.7540586,94.1183529 Z M118.933937,113.641711 L118.933937,74.5949947 L129.094763,74.5949947 L147.861187,98.468385 L147.861187,74.5949947 L157.970172,74.5949947 L157.970172,113.641711 L147.861187,113.641711 L129.094763,89.7683209 L129.094763,113.641711 L118.933937,113.641711 Z M199.542293,83.1914866 L199.542293,113.641711 L189.381467,113.641711 L189.381467,83.1914866 L181.035074,83.1914866 L181.035074,74.5949947 L207.888686,74.5949947 L207.888686,83.1914866 L199.542293,83.1914866 Z M223.024083,89.6647487 L237.695071,89.6647487 L237.695071,74.5949947 L247.855897,74.5949947 L247.855897,113.641711 L237.695071,113.641711 L237.695071,97.5362353 L223.024083,97.5362353 L223.024083,113.641711 L212.863257,113.641711 L212.863257,74.5949947 L223.024083,74.5949947 L223.024083,89.6647487 Z M278.750943,83.1914866 L266.672002,83.1914866 L266.672002,89.7165348 L278.077011,89.7165348 L278.077011,98.3130267 L266.672002,98.3130267 L266.672002,105.045219 L278.750943,105.045219 L278.750943,113.641711 L256.511176,113.641711 L256.511176,74.5949947 L278.750943,74.5949947 L278.750943,83.1914866 Z M332.764892,87.6450909 C330.414757,84.7795793 327.511693,83.3468449 324.055612,83.3468449 C322.534937,83.3468449 321.126605,83.6230347 319.830575,84.1754225 C318.534545,84.7278102 317.419975,85.4787011 316.486834,86.4281176 C315.553692,87.3775342 314.819286,88.508186 314.283593,89.820107 C313.747901,91.1320279 313.480059,92.5475004 313.480059,94.0665668 C313.480059,95.6201575 313.747901,97.0528918 314.283593,98.3648128 C314.819286,99.6767338 315.562332,100.816017 316.512754,101.782695 C317.463176,102.749374 318.577746,103.508896 319.856495,104.061283 C321.135245,104.613671 322.517657,104.889861 324.003771,104.889861 C327.252487,104.889861 330.172831,103.508912 332.764892,100.746973 L332.764892,112.761348 L331.728073,113.12385 C330.172836,113.676238 328.721304,114.081892 327.373433,114.340824 C326.025562,114.599755 324.694991,114.729219 323.38168,114.729219 C320.685937,114.729219 318.102556,114.219994 315.631458,113.201529 C313.16036,112.183064 310.983062,110.75033 309.099498,108.903283 C307.215935,107.056237 305.703922,104.863981 304.563415,102.326449 C303.422909,99.7889178 302.852664,97.0183893 302.852664,94.0147807 C302.852664,91.0111721 303.414269,88.2579056 304.537495,85.7548984 C305.660721,83.2518912 307.164094,81.0941588 309.047657,79.2816364 C310.931221,77.4691139 313.11716,76.0536415 315.605538,75.0351765 C318.093916,74.0167115 320.703217,73.5074866 323.433521,73.5074866 C324.988757,73.5074866 326.51805,73.6714743 328.021445,73.9994545 C329.52484,74.3274348 331.105973,74.8366596 332.764892,75.5271444 L332.764892,87.6450909 Z M349.818404,74.5949947 L349.818404,95.8272941 C349.818404,96.9665939 349.861604,98.1317694 349.948006,99.3228556 C350.034408,100.513942 350.29361,101.592808 350.72562,102.559487 C351.157631,103.526165 351.840196,104.31158 352.773338,104.915754 C353.70648,105.519928 355.019771,105.822011 356.71325,105.822011 C358.40673,105.822011 359.71138,105.519928 360.627242,104.915754 C361.543103,104.31158 362.225669,103.526165 362.674959,102.559487 C363.12425,101.592808 363.392092,100.513942 363.478494,99.3228556 C363.564896,98.1317694 363.608096,96.9665939 363.608096,95.8272941 L363.608096,74.5949947 L373.717081,74.5949947 L373.717081,97.2255187 C373.717081,103.301784 372.32603,107.738082 369.543885,110.534545 C366.76174,113.331009 362.484905,114.729219 356.71325,114.729219 C350.941596,114.729219 346.65612,113.331009 343.856695,110.534545 C341.057269,107.738082 339.657578,103.301784 339.657578,97.2255187 L339.657578,74.5949947 L349.818404,74.5949947 Z M397.198871,83.1914866 L397.198871,113.641711 L387.038045,113.641711 L387.038045,83.1914866 L378.691652,83.1914866 L378.691652,74.5949947 L405.545264,74.5949947 L405.545264,83.1914866 L397.198871,83.1914866 Z" id=".-ON-THE-CUT-."></path>
            </g>
        </g>
    </g>
</svg>
