<?xml version="1.0" encoding="UTF-8"?>
<svg width="100%" viewBox="0 0 1775 1401" version="1.1" xmlns="http://www.w3.org/2000/svg" xmlns:xlink="http://www.w3.org/1999/xlink">
  <g id="dope-print" stroke="none" stroke-width="1" fill="none" fill-rule="evenodd">
    <g class="theme__highlight" transform="translate(-44.000000, -133.000000)">
      <g transform="translate(956.433776, 804.244899) rotate(-6.000000) translate(-956.433776, -804.244899) translate(69.933776, 88.744899)">
        <path d="M1465.29786,625.77232 C1645.20745,529.203201 1789.3997,347.970746 1732.51652,244.787305 C1670.34188,131.020946 1407.09182,172.02975 1319.78275,501.423044 C1237.76515,812.296233 1389.89458,920.771134 1548.63834,849.336443 C1642.56172,807.004775 1692.83058,730.278626 1753.68235,595.346433 C1766.911,566.243411 1772.20246,542.431848 1772.20246,535.817525 C1772.20246,510.683097 1762.94241,519.943149 1741.77657,567.566276 C1672.98761,722.341438 1617.4273,784.516076 1557.89839,812.296233 C1466.62073,855.950766 1371.37447,747.475866 1437.51771,508.037367 C1508.9524,240.818711 1584.35568,164.092562 1626.68735,258.015951 C1659.75897,332.096371 1621.39589,506.714503 1463.975,596.669298 C1440.16344,609.897944 1438.84057,640.323831 1465.29786,625.77232 L1465.29786,625.77232 Z" id="e"></path>
        <path d="M1056.15041,439.081881 C1040.27603,499.933654 1008.52728,661.32314 938.415456,903.407368 L930.478268,933.833255 C860.366443,952.35336 795.546076,988.070705 741.308626,1046.27675 C634.15659,1158.72024 570.659088,1322.75546 635.479455,1392.86728 C709.559874,1470.9163 893.438059,1464.30197 1029.69312,1011.88227 C1111.71072,1021.14232 1195.0512,1054.21394 1257.22583,1121.68003 C1258.5487,1121.68003 1262.51729,1119.0343 1269.13162,1113.74285 C1361.73214,1051.56821 1335.27485,980.133517 1221.50849,945.739037 C1165.94817,928.541796 1110.38786,919.281744 1056.15041,917.958879 C1060.119,900.761639 1064.0876,883.564399 1069.37906,867.690023 C1140.81375,928.541796 1312.78615,878.27294 1390.83516,581.951262 C1472.85277,269.755208 1329.98339,153.34312 1240.02859,265.786614 C1229.44568,279.01526 1217.53989,296.212501 1205.63411,316.05547 C1221.50849,210.226299 1183.14541,179.800413 1118.32505,189.060465 C1111.71072,190.38333 1109.06499,190.38333 1109.06499,190.38333 C1109.06499,190.38333 1103.77354,251.235103 1056.15041,439.081881 L1056.15041,439.081881 Z M1250.61151,286.952448 C1295.58891,231.392133 1337.92058,337.221304 1273.10021,575.336939 C1205.63411,821.389761 1123.61651,908.698827 1075.99338,839.909866 C1122.29364,662.646005 1156.68812,523.745218 1176.53109,447.019069 C1201.66552,367.647191 1230.76854,313.409741 1250.61151,286.952448 L1250.61151,286.952448 Z M684.425446,1370.37858 C624.896538,1317.464 683.102582,1160.04311 762.47446,1080.67123 C791.577482,1051.56821 843.169202,1027.75664 904.020976,1017.17373 C791.577482,1373.02431 734.694302,1412.71025 684.425446,1370.37858 L684.425446,1370.37858 Z" id="p"></path>
        <path d="M191.749699,886.60153 C321.390434,980.524919 619.034977,943.48471 735.447065,501.647921 C835.984777,123.308636 682.532479,-16.9150158 432.511063,1.60508915 C13.1629735,32.0309758 -104.571979,504.293651 93.8577162,667.006001 C104.440633,674.943189 120.315009,685.526106 130.897926,685.526106 C130.897926,685.526106 140.157978,674.943189 124.283603,661.714542 C-91.3433327,488.419275 68.7232882,61.1339977 412.668093,33.3538404 C587.286225,20.125194 711.635501,152.411658 619.034977,495.033598 C507.914347,905.121635 314.77611,943.48471 212.915533,868.081425 C154.709489,824.426892 153.386625,706.69194 252.601473,653.777354 L252.601473,656.423084 C208.94694,842.946997 238.049962,865.435696 304.193193,873.372884 L316.098975,873.372884 L443.09398,386.558698 C452.354032,345.549894 465.582679,291.312444 473.519867,262.209422 C511.882941,118.017177 492.039972,57.1654038 398.116582,70.3940502 C392.825124,71.7169148 388.85653,73.0397795 388.85653,73.0397795 C388.85653,73.0397795 379.596478,153.734522 331.973351,342.904165 C317.42184,398.46448 293.610276,484.450681 261.861525,616.737145 C134.86652,670.974595 99.1491748,820.458299 191.749699,886.60153 L191.749699,886.60153 Z" id="D"></path>
        <path d="M649.422472,575.289285 C575.342053,857.059452 686.462682,929.817007 759.220237,928.494143 C834.623521,925.848413 945.744151,838.539347 1010.56452,665.24408 C1038.34468,653.338299 1066.12483,634.818194 1093.90499,608.360901 C1117.71655,585.872202 1130.9452,566.029233 1133.59093,559.414909 C1142.85098,536.926211 1130.9452,542.217669 1093.90499,577.935014 C1067.4477,603.069442 1043.63613,621.589547 1021.14743,634.818194 L1031.73035,597.777984 C1093.90499,359.662349 1043.63613,161.232654 920.609723,190.335676 C869.018002,203.564322 830.654927,243.250261 805.520499,294.841982 C736.731538,349.079432 682.494088,446.971415 649.422472,575.289285 L649.422472,575.289285 Z M824.040604,555.446315 C808.166229,527.666158 801.551905,490.625948 801.551905,450.940009 C842.560709,329.236463 891.506701,265.73896 956.327068,271.030419 L958.972797,271.030419 C970.878579,342.465109 945.744151,481.365896 908.703941,617.620953 L900.766753,644.078246 C872.986596,628.20387 846.529303,599.100848 824.040604,555.446315 L824.040604,555.446315 Z M798.906176,567.352097 C825.363469,617.620953 858.435085,650.692569 894.15243,666.566945 C854.466491,800.176273 810.811958,892.776798 773.771748,894.099662 C726.148621,896.745391 707.628516,826.633566 765.83456,581.903608 L781.708936,521.051835 C785.67753,538.249075 790.968988,554.123451 798.906176,567.352097 L798.906176,567.352097 Z M854.466491,265.73896 C870.340866,243.250261 888.860971,227.375886 911.34967,222.084427 C929.869775,218.115833 943.098421,226.053021 951.035609,245.895991 C916.641129,244.573126 884.892377,251.187449 854.466491,265.73896 L854.466491,265.73896 Z" id="o"></path>
      </g>
    </g>
  </g>
</svg>
