<?xml version="1.0" encoding="UTF-8"?>
<svg viewBox="0 0 998 267" version="1.1" xmlns="http://www.w3.org/2000/svg" xmlns:xlink="http://www.w3.org/1999/xlink">
    <g stroke="none" stroke-width="1" fill="none" fill-rule="evenodd">
        <g transform="translate(-2.000000, -3.000000)" fill="#000">
            <path d="M810.883762,105.565951 L812.648929,100.998193 L832.065758,100.998193 L850.978253,69.0238908 L878.212247,68.0088336 L857.282419,100.998193 L889.307578,100.998193 L887.038079,105.565951 L854.508586,105.565951 C846.94355,118.085052 840.555393,128.616166 835.343924,137.159607 C830.132454,145.703047 825.971747,152.808377 822.861676,158.475808 C819.751606,164.143239 817.482129,168.668657 816.053178,172.052198 C814.624227,175.435739 813.909762,178.396293 813.909762,180.933949 C813.909762,183.133251 814.498145,184.909583 815.674928,186.262999 C816.851711,187.616416 818.532805,188.293114 820.71826,188.293114 C824.921058,188.293114 830.468668,186.136139 837.361257,181.822124 C844.253845,177.508109 851.650658,171.544708 859.551918,163.931741 C864.931499,158.518075 870.815328,152.174031 877.203581,144.899418 C883.591834,137.624805 889.559717,130.265713 895.10741,122.821923 L896.62041,124.090745 C892.753836,129.166056 887.878664,135.340926 881.994747,142.615539 C876.11083,149.890152 869.638618,157.080069 862.577918,164.185505 C858.711344,168.076577 854.718745,171.756123 850.600004,175.224252 C846.481262,178.692382 842.320554,181.737523 838.117756,184.359767 C833.914959,186.982011 829.796278,189.054399 825.761592,190.576993 C821.726907,192.099586 817.776336,192.860871 813.909762,192.860871 C808.530181,192.860871 803.823118,191.634356 799.788432,189.181289 C795.753746,186.728222 793.736433,182.456565 793.736433,176.366192 C793.736433,171.967588 794.661035,167.44217 796.510266,162.789801 C798.359497,158.137432 800.923165,153.019903 804.201347,147.437061 C807.47953,141.854218 811.304018,135.679349 815.674928,128.912267 C820.045838,122.145185 824.752901,114.363157 829.796258,105.565951 L810.883762,105.565951 Z" id="t"></path>
            <path d="M719.137144,12.9419795 L641.217662,137.794017 C634.661297,148.452171 629.449906,157.29154 625.583332,164.312387 C621.716758,171.333235 619.7835,177.042874 619.7835,181.441478 C619.7835,186.009258 621.632703,188.293114 625.331165,188.293114 C628.861515,188.293114 633.652633,186.347607 639.704662,182.456535 C645.756691,178.565463 652.228903,173.151878 659.121491,166.215619 C665.509744,159.786891 671.813846,152.935324 678.033987,145.660711 C684.254128,138.386098 690.306066,130.857832 696.189983,123.075688 L698.459482,123.836981 C696.442139,126.543813 694.130635,129.588955 691.5249,132.972495 C688.919166,136.356036 686.187388,139.78182 683.329486,143.24995 C680.471583,146.718079 677.571696,150.186157 674.629738,153.654286 C671.687779,157.122416 668.787892,160.294438 665.929989,163.170448 C656.179498,173.151894 647.563892,180.595572 640.082912,185.501706 C632.601932,190.407841 624.826872,192.860871 616.7575,192.860871 C605.32589,192.860871 599.610171,187.785636 599.610171,177.635013 C599.610171,172.898056 601.333292,166.934654 604.779587,159.74463 C608.225881,152.554605 613.563354,142.869364 620.792166,130.688617 L691.14665,14.4645653 L719.137144,12.9419795 Z" id="l"  ></path>
            <path d="M596.584172,99.9831359 C590.027807,110.979644 583.933842,120.791766 578.302092,129.419795 C572.670343,138.047825 567.837198,145.702971 563.802512,152.385465 C559.767826,159.067958 556.615775,164.862185 554.346264,169.76832 C552.076754,174.674454 550.942015,178.988404 550.942015,182.710299 C550.942015,186.432194 552.539054,188.293114 555.733181,188.293114 C557.750524,188.293114 560.18811,187.574122 563.046013,186.136117 C565.903915,184.698112 568.929884,182.837193 572.124011,180.553303 C575.318137,178.269412 578.59627,175.604914 581.958508,172.559727 C585.320747,169.51454 588.514825,166.469399 591.540839,163.424212 C595.239302,159.53314 598.895681,155.599832 602.510087,151.624172 C606.124493,147.648511 609.486681,143.799791 612.596751,140.077896 C615.706822,136.356001 618.522654,132.930217 621.044333,129.800442 C623.566012,126.670666 625.667379,124.006168 627.348498,121.806866 L629.365831,123.329452 C625.331145,128.743117 620.203809,135.214043 613.983668,142.742421 C607.763527,150.2708 601.123206,157.672185 594.062506,164.946798 C585.488798,173.744004 577.587657,180.595572 570.358844,185.501706 C563.130032,190.407841 555.985383,192.860871 548.924682,192.860871 C543.881325,192.860871 539.8467,191.338301 536.820685,188.293114 C533.794671,185.247927 532.281686,181.4415 532.281686,176.87372 C532.281686,173.659356 532.575878,170.78339 533.164269,168.245734 C533.752661,165.708078 534.467126,163.762571 535.307685,162.409155 L534.803352,161.901626 C531.777338,165.11599 528.499205,168.541774 524.968854,172.179081 C521.438504,175.816387 517.656043,179.157584 513.621357,182.202771 C509.586671,185.247957 505.257854,187.785575 500.634777,189.8157 C496.011699,191.845824 491.010444,192.860871 485.630863,192.860871 C480.419394,192.860871 476.468823,191.21142 473.779033,187.912467 C471.089242,184.613515 469.744367,180.764795 469.744367,176.366192 C469.744367,169.937464 473.190609,160.632866 480.083198,148.452118 C486.975786,136.271371 496.305858,120.453554 508.073692,100.998193 L534.803352,99.9831359 C521.522511,120.453559 510.721483,137.244129 502.399943,150.35535 C494.078403,163.466572 489.917696,173.2364 489.917696,179.665127 C489.917696,181.695252 490.464051,183.386997 491.556779,184.740414 C492.649506,186.09383 494.120463,186.770528 495.969694,186.770528 C499.163821,186.770528 502.988309,185.417132 507.443275,182.710299 C511.898241,180.003466 516.563276,176.366214 521.438522,171.798434 C526.313767,167.230654 531.146912,161.986244 535.938102,156.065047 C540.729292,150.14385 545.058108,143.968981 548.924682,137.540253 L570.611011,102.01325 L596.584172,99.9831359 Z" id="u"  ></path>
            <path d="M307.895431,210.624373 C298.985499,210.79355 292.303151,213.24658 287.848185,217.983537 C283.39322,222.720495 281.16577,229.318301 281.16577,237.777153 C281.16577,241.837402 281.838208,245.601535 283.183103,249.069665 C284.527998,252.537794 286.419229,255.540642 288.856852,258.078298 C291.294475,260.615953 294.236389,262.603754 297.682683,264.041759 C301.128977,265.479764 305.037521,266.198755 309.408431,266.198755 C317.309691,266.198755 324.790558,264.591597 331.851259,261.377233 C338.911959,258.16287 345.594308,253.84892 351.898504,248.435254 C358.202701,243.021588 364.170585,236.889012 369.802334,230.037342 C375.434083,223.185671 380.729529,216.164929 385.68883,208.974905 C390.648132,201.78488 395.313167,194.637257 399.684077,187.531821 C404.054987,180.426385 408.173667,174.082341 412.040241,168.499498 L411.535908,167.991969 C408.846117,171.206333 405.862175,174.293768 402.583993,177.254367 C399.305811,180.214965 395.859568,182.83717 392.245162,185.12106 C388.630756,187.40495 384.76424,189.26587 380.645498,190.703875 C376.526756,192.14188 372.197939,192.860871 367.658917,192.860871 C360.766329,192.860871 355.512911,190.450135 351.898504,185.628589 C348.284098,180.807043 346.476922,175.18199 346.476922,168.753262 C346.476922,160.463587 348.57829,152.047155 352.781088,143.503714 C356.983885,134.960273 362.447441,127.262833 369.171917,120.411162 C375.896394,113.559492 383.461316,107.934439 391.866912,103.535836 C400.272508,99.1372329 408.593923,96.9379643 416.831406,96.9379643 C423.219659,96.9379643 428.262941,98.1221858 431.961403,100.490665 C435.659865,102.859143 438.517725,107.173093 440.535068,113.432644 L446.3349,102.520779 L472.055894,100.998193 C462.977851,116.562482 454.068053,132.295711 445.326233,148.198354 C436.584414,164.100996 427.338397,179.918813 417.587906,195.652279 C427.002173,192.945446 435.785889,189.054432 443.939317,183.979121 C452.092745,178.903809 459.741722,173.109582 466.886479,166.596266 C474.031235,160.082949 480.755611,153.062207 487.059807,145.533829 C493.364004,138.00545 499.373915,130.434891 505.08972,122.821923 L506.60272,123.583216 C501.055026,131.703715 494.961061,139.69721 488.32064,147.563943 C481.68022,155.430676 474.577598,162.747473 467.012562,169.514555 C459.447526,176.281637 451.378275,182.245039 442.804567,187.404939 C434.23086,192.564839 425.152953,196.498146 415.570573,199.204979 C409.518545,209.693956 402.668087,219.252316 395.018995,227.880345 C387.369903,236.508375 379.00646,243.867466 369.928417,249.95784 C360.850374,256.048214 351.015974,260.7851 340.424924,264.168641 C329.833873,267.552182 318.486489,269.243927 306.382431,269.243927 C300.16229,269.243927 294.278462,268.69411 288.730769,267.594459 C283.183075,266.494808 278.265876,264.633889 273.979022,262.011644 C269.692168,259.3894 266.287953,256.00591 263.766274,251.861072 C261.244595,247.716234 259.983775,242.598705 259.983775,236.508332 C259.983775,231.940551 260.950404,227.838069 262.883691,224.200763 C264.816978,220.563456 267.380646,217.518315 270.574773,215.065248 C273.768899,212.612181 277.425278,210.751261 281.54402,209.482433 C285.662762,208.213605 289.82347,207.579201 294.026267,207.579201 C295.539275,207.579201 297.808751,207.748375 300.834766,208.08673 C303.86078,208.425084 306.214312,208.678845 307.895431,208.848022 L307.895431,210.624373 Z M370.684917,166.723148 C370.684917,171.629282 371.525464,175.774058 373.206583,179.157599 C374.887702,182.54114 378.586109,184.232885 384.301914,184.232885 C387.832264,184.232885 391.446616,182.964076 395.145078,180.42642 C398.84354,177.888765 402.457892,174.632155 405.988242,170.656495 C409.518592,166.680834 412.88078,162.155416 416.074907,157.080104 C419.269033,152.004793 422.042838,146.929558 424.396405,141.854246 C426.749972,136.778935 428.599175,131.915167 429.94407,127.262799 C431.288966,122.61043 431.961403,118.677122 431.961403,115.462758 C431.961403,113.601811 431.835321,111.783185 431.583153,110.006826 C431.330985,108.230467 430.868684,106.581015 430.196237,105.058422 C429.523789,103.535829 428.515133,102.309313 427.170237,101.37884 C425.825342,100.448366 423.976139,99.9831359 421.622572,99.9831359 C415.402431,99.9831359 409.266438,102.393873 403.21441,107.215419 C397.162381,112.036964 391.740853,117.958072 386.949663,124.97892 C382.158474,131.999767 378.24993,139.316565 375.223916,146.929532 C372.197901,154.542499 370.684917,161.140305 370.684917,166.723148 Z" id="g"  ></path>
            <path d="M379.300609,123.836981 C374.08914,130.942417 368.499503,137.963159 362.53153,144.899418 C356.563557,151.835677 349.460935,159.110181 341.223451,166.723148 C329.623729,177.212125 318.486482,184.444335 307.811375,188.419996 C297.136269,192.395657 287.091733,194.383457 277.677465,194.383457 C268.095086,194.383457 260.530164,191.50749 254.982471,185.755471 C249.434777,180.003451 246.660972,172.559773 246.660972,163.424212 C246.660972,155.303714 249.098559,147.267924 253.973804,139.316603 C258.84905,131.365282 264.985042,124.259952 272.381967,118.000402 C279.778891,111.740851 287.890169,106.665615 296.716045,102.774543 C305.54192,98.8834711 313.905362,96.9379643 321.806622,96.9379643 C329.035435,96.9379643 334.667099,98.333654 338.701785,101.125075 C342.736471,103.916497 344.753784,107.849804 344.753784,112.925115 C344.753784,116.985365 343.366881,120.707204 340.593035,124.090745 C337.819188,127.474286 334.246864,130.519427 329.875954,133.22626 C325.505044,135.933093 320.587844,138.301536 315.124207,140.33166 C309.66057,142.361785 304.239042,144.138117 298.859461,145.660711 C293.479879,147.183304 288.436598,148.452113 283.729464,149.467175 C279.022331,150.482238 275.155814,151.32811 272.1298,152.004818 C271.28924,155.388359 270.868967,158.4335 270.868967,161.140333 C270.868967,168.414946 272.88628,174.336054 276.920966,178.903835 C280.955652,183.471615 286.587316,185.755471 293.816129,185.755471 C300.876829,185.755471 308.651888,183.640789 317.14154,179.411363 C325.631192,175.181937 334.162743,169.007067 342.736451,160.886569 C349.292816,154.627018 355.596918,148.071506 361.648947,141.219835 C367.700976,134.368165 372.996421,127.981827 377.535443,122.06063 L379.300609,123.836981 Z M324.580455,106.581008 C324.580455,104.212529 323.950045,102.520784 322.689205,101.505722 C321.428366,100.490659 319.789299,99.9831359 317.771956,99.9831359 C313.569159,99.9831359 309.030205,101.759468 304.15496,105.312186 C299.279714,108.864904 294.698733,113.221148 290.411879,118.381048 C286.125025,123.540948 282.342564,128.954532 279.064382,134.621963 C275.7862,140.289395 273.642805,145.237749 272.634133,149.467175 C279.526722,148.113759 286.082988,145.872197 292.303129,142.742421 C298.52327,139.612646 304.028852,136.059981 308.820042,132.08432 C313.611231,128.10866 317.43572,123.879297 320.293623,119.396105 C323.151525,114.912913 324.580455,110.641257 324.580455,106.581008 Z" id="e"  ></path>
            <path d="M126.965888,54.3055611 C127.134,55.9973316 127.302109,57.773664 127.470221,59.6346115 C127.638333,61.4955591 127.722388,63.3564787 127.722388,65.2174262 C127.722388,73.8454557 126.377513,82.219594 123.687722,90.3400924 C120.997932,98.4605907 117.089388,105.692801 111.961975,112.03694 C106.834562,118.38108 100.572487,123.456315 93.1755624,127.262799 C85.7786382,131.069282 77.4572233,132.972495 68.211068,132.972495 C62.495263,132.972495 57.1577897,132.126623 52.1984883,130.434852 C47.2391868,128.743082 42.8683426,126.247758 39.0858246,122.948805 C35.3033065,119.649853 32.3193648,115.631958 30.1339099,110.895001 C27.948455,106.158044 26.855744,100.829047 26.855744,94.9078498 C26.855744,85.264758 28.9991387,76.298509 33.2859925,68.0088336 C37.5728463,59.7191582 43.2885657,52.1485988 50.433322,45.2969283 C57.5780784,38.4452579 65.7734112,32.3972691 75.0195665,27.1527806 C84.2657218,21.9082921 93.8059298,17.5097548 103.640477,13.9570367 C113.475024,10.4043187 123.351451,7.69752654 133.270053,5.836579 C143.188656,3.97563146 152.266564,3.04517165 160.504047,3.04517165 C166.387964,3.04517165 171.935574,3.12975891 177.147044,3.29893596 C182.358513,3.46811301 187.485849,3.89104928 192.529207,4.56775748 C197.572564,5.24446567 202.615846,6.21721911 207.659203,7.48604698 C212.702561,8.75487484 218.082061,10.4043263 223.797866,12.4344509 C229.34556,10.4043263 234.89317,8.67028759 240.440863,7.23228267 C245.988556,5.79427776 251.199947,5.07528609 256.075193,5.07528609 L256.075193,7.10540052 C251.536171,7.78210872 247.039245,8.75486216 242.584279,10.02369 C238.129313,11.2925179 233.884551,13.0265566 229.849865,15.2258583 C236.070006,18.9477533 241.407479,23.7692269 245.862445,29.6904236 C250.317411,35.6116203 252.54486,42.3786008 252.54486,49.991568 C252.54486,58.4504204 250.527547,65.6403371 246.492861,71.5615338 C242.458175,77.4827305 237.288812,82.3042041 230.984615,86.0260992 C224.680418,89.7479943 217.745906,92.4970801 210.18087,94.2734391 C202.615833,96.0497981 195.303075,97.1071388 188.242374,97.4454929 L188.242374,97.9530215 C193.285732,100.152323 197.782658,103.366639 201.733288,107.596065 C205.683918,111.825491 207.659203,117.154488 207.659203,123.583216 C207.659203,128.827705 206.860684,134.072115 205.263621,139.316603 C203.666557,144.561092 201.943436,149.678621 200.094205,154.669344 C198.244974,159.660066 196.521853,164.439246 194.92479,169.007027 C193.327726,173.574807 192.529207,177.888757 192.529207,181.949006 C192.529207,187.193495 194.462465,189.8157 198.329039,189.8157 C203.204284,189.8157 209.004058,187.701018 215.728535,183.471592 C222.453011,179.242166 229.597661,173.321058 237.162697,165.708091 C240.861159,161.986196 244.433483,158.095182 247.879778,154.034933 C251.326072,149.974684 254.604205,146.041376 257.714276,142.234893 C260.824346,138.428409 263.598151,134.833451 266.035774,131.44991 C268.473396,128.066369 270.532736,125.274989 272.213856,123.075688 L274.231188,124.852038 C270.028391,130.773234 265.069164,137.37104 259.353358,144.645653 C253.637553,151.920267 247.585615,158.941009 241.197363,165.708091 C232.791767,174.33612 224.554407,181.272275 216.485035,186.516764 C208.415663,191.761252 199.926139,194.383457 191.016207,194.383457 C184.627954,194.383457 179.584673,192.607125 175.886211,189.054407 C172.187748,185.501689 170.338545,180.764802 170.338545,174.843606 C170.338545,169.42994 171.389229,163.762594 173.490628,157.841397 C175.592027,151.920201 177.903531,146.08368 180.42521,140.33166 C182.946888,134.579641 185.258392,129.250644 187.359791,124.344509 C189.46119,119.438375 190.511874,115.462774 190.511874,112.417587 C190.511874,109.203223 190.0916,106.707899 189.251041,104.93154 C188.410481,103.155181 187.191688,101.759491 185.594625,100.744429 C183.997562,99.7293665 182.106331,99.0103749 179.920876,98.5874322 C177.735421,98.1644896 175.297835,97.783847 172.608045,97.4454929 L173.112378,95.4153784 C175.634057,95.5845555 178.155697,95.5845555 180.677376,95.4153784 C183.199055,95.2462014 186.309079,94.9078524 190.007541,94.4003212 C197.068241,93.3852589 203.162207,90.9745221 208.28962,87.1680385 C213.417033,83.3615549 217.619768,79.0476049 220.89795,74.226059 C224.176133,69.4045131 226.571692,64.4138651 228.084699,59.2539651 C229.597706,54.0940651 230.354198,49.6532342 230.354198,45.9313391 C230.354198,40.5176735 229.597706,35.9499617 228.084699,32.2280667 C226.571692,28.5061716 223.881941,24.7843323 220.015367,21.0624373 C209.088093,29.0137586 199.589912,38.7835866 191.52054,50.3722144 C183.451168,61.9608423 175.844218,74.1414071 168.699462,86.9142742 C161.554706,99.6871414 154.410057,112.37523 147.2653,124.97892 C140.120544,137.58261 131.925211,148.917302 122.679056,158.983337 C113.432901,169.049371 102.715927,177.212041 90.527813,183.471592 C78.3396993,189.731143 63.5881001,192.860871 46.2725729,192.860871 C41.5654394,192.860871 36.6062123,192.268761 31.394743,191.084521 C26.1832736,189.900282 21.4341833,187.997069 17.1473295,185.374824 C12.8604757,182.75258 9.33017844,179.36909 6.55633186,175.224252 C3.78248528,171.079414 2.3955828,166.13106 2.3955828,160.37904 C2.3955828,155.642083 3.69843059,151.455014 6.30416525,147.817707 C8.90989992,144.180401 12.2300604,142.361775 16.2647464,142.361775 C19.6269846,142.361775 22.6529537,143.376822 25.3427443,145.406946 C28.0325349,147.437071 29.3774101,150.22845 29.3774101,153.781168 C29.3774101,157.164709 28.5368631,159.829208 26.855744,161.774744 C25.1746248,163.72028 22.7370386,164.862208 19.5429123,165.200562 C19.5429123,174.166946 21.9384711,180.51099 26.7296607,184.232885 C31.5208502,187.95478 38.0350892,189.8157 46.2725729,189.8157 C55.6868401,189.8157 64.0923097,187.785606 71.489234,183.725356 C78.8861582,179.665107 85.7786433,174.209229 92.166896,167.357559 C98.5551487,160.505888 104.523032,152.59698 110.070725,143.630596 C115.618418,134.664213 121.166028,125.275027 126.713722,115.462758 C132.261415,105.65049 137.977134,95.7537808 143.861051,85.7723349 C149.744968,75.790889 156.133125,66.3171164 163.025713,57.3507328 C169.918302,48.3843492 177.525252,40.3062663 185.846792,33.1162417 C194.168331,25.9262171 203.54043,20.2165774 213.963369,15.9871512 C209.760571,13.7878495 205.263645,12.0115172 200.472455,10.6581008 C195.681265,9.30468439 190.974202,8.28963733 186.351125,7.61292913 C181.728047,6.93622094 177.357203,6.51328466 173.238461,6.34410761 C169.119719,6.17493056 165.547395,6.0903433 162.52138,6.0903433 C149.408651,6.0903433 135.9599,8.28961195 122.174723,12.6882152 C108.389546,17.0868185 95.8653959,23.3039818 84.6018977,31.3398916 C73.3383994,39.3758014 64.0923829,49.0187485 56.8635706,60.2690223 C49.6347583,71.519296 46.0204063,83.9959162 46.0204063,97.6992572 C46.0204063,106.834818 48.6261019,114.236203 53.8375713,119.903634 C59.0490406,125.571065 66.2777445,128.404738 75.5238997,128.404738 C82.752712,128.404738 89.3510057,126.459231 95.3189786,122.568159 C101.286952,118.677087 106.456315,113.728732 110.827225,107.722947 C115.198135,101.717162 118.60235,95.119356 121.039973,87.9293315 C123.477596,80.7393069 124.696389,73.7608583 124.696389,66.9937764 C124.696389,65.4711829 124.654361,63.6102633 124.570305,61.4109617 C124.486249,59.21166 124.360167,56.9278041 124.192055,54.5593254 L126.965888,54.3055611 Z" id="R"  ></path>
            <path d="M13.1336776,244.027304 L233.779461,244.027304" stroke-linecap="square"></path>
            <path d="M412.397477,244.083071 L969.283276,244.083071" stroke-linecap="square"></path>
            <path d="M766.544467,102.520779 L792.769794,100.998193 C791.256787,104.04338 789.071365,107.722926 786.213462,112.03694 C783.35556,116.350955 780.245536,121.003254 776.883298,125.993977 C773.52106,130.9847 770.116844,136.144523 766.67055,141.4736 C763.224256,146.802677 760.072205,151.962499 757.214302,156.953222 C754.3564,161.943945 752.044896,166.596244 750.279721,170.910259 C748.514545,175.224274 747.631971,178.903819 747.631971,181.949006 C747.631971,186.178432 749.733339,188.293114 753.936136,188.293114 C757.970822,188.293114 763.434378,185.924671 770.326966,181.187713 C777.219555,176.450756 784.448258,170.191299 792.013294,162.409155 C795.207421,159.194791 798.443527,155.726713 801.721709,152.004818 C804.999891,148.282923 808.151942,144.603378 811.177957,140.966071 C814.203971,137.328765 816.977776,133.945274 819.499455,130.815499 C822.021134,127.685723 824.038446,125.105812 825.551454,123.075688 L827.31662,124.090745 C822.94571,130.011942 817.902428,136.567454 812.186623,143.757478 C806.470818,150.947503 799.578333,158.60265 791.508961,166.723148 C783.439589,174.843646 775.496421,181.483746 767.679217,186.643646 C759.862013,191.803546 752.086953,194.383457 744.353805,194.383457 C738.974224,194.383457 734.813516,192.987767 731.871558,190.196346 C728.929599,187.404925 727.458642,183.979141 727.458642,179.918892 C727.458642,178.565475 727.542697,177.296667 727.710809,176.112427 C727.878921,174.928188 728.131085,173.997728 728.467309,173.32102 L727.962976,173.32102 C722.751506,179.242217 716.867677,184.232865 710.311313,188.293114 C703.754948,192.353363 696.694354,194.383457 689.129318,194.383457 C685.094632,194.383457 681.648389,193.622172 678.790487,192.099578 C675.932584,190.576985 673.62108,188.504597 671.855905,185.882353 C670.09073,183.260109 668.787882,180.299555 667.947322,177.000602 C667.106763,173.70165 666.686489,170.275866 666.686489,166.723148 C666.686489,158.433473 668.955966,150.143922 673.494988,141.854246 C678.034009,133.564571 683.749729,126.078599 690.642317,119.396105 C697.534906,112.713612 705.22591,107.300027 713.715562,103.15519 C722.205214,99.010352 730.316492,96.9379643 738.04964,96.9379643 C743.933557,96.9379643 748.556565,98.2067731 751.918803,100.744429 C755.281042,103.282085 758.054847,107.257686 760.240302,112.671351 L766.544467,102.520779 Z M690.894484,167.484441 C690.894484,172.390575 691.693003,176.662232 693.290067,180.299538 C694.88713,183.936845 698.291345,185.755471 703.502814,185.755471 C707.033165,185.586294 710.731571,184.106017 714.598145,181.314595 C718.464719,178.523174 722.205153,175.012803 725.819559,170.783377 C729.433966,166.553951 732.880208,161.859358 736.15839,156.699458 C739.436573,151.539558 742.294432,146.337442 744.732055,141.092953 C747.169678,135.848465 749.102936,130.90011 750.531887,126.247741 C751.960838,121.595373 752.675303,117.662065 752.675303,114.447701 C752.675303,109.879921 751.834756,106.327256 750.153637,103.7896 C748.472518,101.251945 745.194385,99.9831359 740.319139,99.9831359 C736.452565,99.9831359 732.544022,101.167357 728.593392,103.535836 C724.642762,105.904315 720.860301,109.034043 717.245895,112.925115 C713.631488,116.816188 710.185246,121.172431 706.907064,125.993977 C703.628881,130.815523 700.813049,135.763877 698.459482,140.839189 C696.105915,145.9145 694.256712,150.778268 692.911817,155.430636 C691.566921,160.083005 690.894484,164.1009 690.894484,167.484441 Z" id="a"  ></path>
            <path d="M999.210192,123.836981 C993.998723,130.942417 988.409086,137.963159 982.441113,144.899418 C976.47314,151.835677 969.370518,159.110181 961.133034,166.723148 C949.533312,177.212125 938.396065,184.444335 927.720958,188.419996 C917.045852,192.395657 907.001316,194.383457 897.587049,194.383457 C888.004669,194.383457 880.439747,191.50749 874.892054,185.755471 C869.344361,180.003451 866.570556,172.559773 866.570556,163.424212 C866.570556,155.303714 869.008142,147.267924 873.883387,139.316603 C878.758633,131.365282 884.894626,124.259952 892.29155,118.000402 C899.688474,111.740851 907.799752,106.665615 916.625628,102.774543 C925.451503,98.8834711 933.814945,96.9379643 941.716205,96.9379643 C948.945018,96.9379643 954.576682,98.333654 958.611368,101.125075 C962.646054,103.916497 964.663367,107.849804 964.663367,112.925115 C964.663367,116.985365 963.276464,120.707204 960.502618,124.090745 C957.728771,127.474286 954.156447,130.519427 949.785537,133.22626 C945.414627,135.933093 940.497427,138.301536 935.03379,140.33166 C929.570153,142.361785 924.148625,144.138117 918.769044,145.660711 C913.389463,147.183304 908.346181,148.452113 903.639047,149.467175 C898.931914,150.482238 895.065398,151.32811 892.039383,152.004818 C891.198824,155.388359 890.77855,158.4335 890.77855,161.140333 C890.77855,168.414946 892.795863,174.336054 896.830549,178.903835 C900.865235,183.471615 906.496899,185.755471 913.725712,185.755471 C920.786412,185.755471 928.561471,183.640789 937.051123,179.411363 C945.540775,175.181937 954.072326,169.007067 962.646034,160.886569 C969.202399,154.627018 975.506501,148.071506 981.55853,141.219835 C987.610559,134.368165 992.906005,127.981827 997.445026,122.06063 L999.210192,123.836981 Z M944.490038,106.581008 C944.490038,104.212529 943.859628,102.520784 942.598788,101.505722 C941.337949,100.490659 939.698883,99.9831359 937.68154,99.9831359 C933.478742,99.9831359 928.939788,101.759468 924.064543,105.312186 C919.189297,108.864904 914.608316,113.221148 910.321462,118.381048 C906.034609,123.540948 902.252147,128.954532 898.973965,134.621963 C895.695783,140.289395 893.552388,145.237749 892.543716,149.467175 C899.436305,148.113759 905.992571,145.872197 912.212712,142.742421 C918.432853,139.612646 923.938435,136.059981 928.729625,132.08432 C933.520814,128.10866 937.345303,123.879297 940.203206,119.396105 C943.061108,114.912913 944.490038,110.641257 944.490038,106.581008 Z" id="e"  ></path>
        </g>
    </g>
</svg>
