<?xml version="1.0" encoding="UTF-8"?>
<svg viewBox="0 0 447 380" version="1.1" xmlns="http://www.w3.org/2000/svg" xmlns:xlink="http://www.w3.org/1999/xlink">
    <g stroke="none" stroke-width="1" fill="none" fill-rule="evenodd">
        <path class="theme__highlight" d="M334.095,127.61 L334.095,361.737 L112.36,361.737 L112.36,127.61 L77.212,164.802 L23.639,108.116 L107.558,19.313 L154.71,17.994 C168.488,35.499 193.515,46.425 221.039,46.869 C221.622,46.88 222.206,46.884 222.79,46.884 C251.004,46.884 276.809,35.865 290.88,17.977 L338.736,19.128 L422.822,108.103 L369.246,164.802 L334.095,127.61 Z M345.815,1.606 L280.412,0.036 L278.695,5.8 C268.125,20.033 246.279,29.194 222.79,29.194 C222.206,29.194 221.618,29.194 221.039,29.177 C198.293,28.738 177.325,19.736 166.984,5.933 L165.349,0 L100.452,1.816 L0,108.116 L77.212,189.815 L95.647,170.312 L95.647,379.423 L350.81,379.423 L350.81,170.312 L369.246,189.815 L446.456,108.103 L345.815,1.606 L345.815,1.606 Z"></path>
    </g>
</svg>
