<?xml version="1.0" encoding="UTF-8"?>
<svg viewBox="0 0 294 96" version="1.1" xmlns="http://www.w3.org/2000/svg" xmlns:xlink="http://www.w3.org/1999/xlink">
    <g stroke="none" stroke-width="1" fill="none" fill-rule="evenodd">
        <g class="logo__fill theme__highlight" transform="translate(147.000000, 47.241067) scale(-1, 1) rotate(-180.000000) translate(-147.000000, -47.241067) translate(0.000000, -0.758933)" fill-rule="nonzero">
            <path d="M0,26.6155993 L7.54533314,37.3209324 C11.7279997,33.3449325 15.9079996,31.6115992 20.5973328,31.6115992 C23.5573327,31.6115992 25.0839994,32.6315992 25.0839994,34.4662658 C25.0839994,35.6915991 23.5573327,36.8142657 17.4373329,38.6489324 C9.17866644,41.299599 1.83466662,45.4795989 1.83466662,55.2702653 C1.83466662,64.9569317 10.0959997,71.0769316 20.5973328,71.0769316 C27.938666,71.0769316 33.5493325,69.0355983 39.3613323,64.7529317 L31.8159992,53.332932 C28.246666,56.7982652 23.9626661,58.5315985 20.4959995,58.5315985 C19.1706662,58.5315985 17.0293329,58.0235985 17.0293329,55.9822653 C17.0293329,54.7582653 18.8639995,53.536932 23.5573327,51.8022654 C34.5679991,47.8249321 40.4826657,45.2769322 40.583999,35.2822658 C40.583999,26.106266 34.0586658,19.1729329 20.4959995,19.1729329 C12.645333,19.1729329 5.60799986,21.6195995 0,26.6155993"></path>
            <path d="M91.727331,70.0537316 L91.727331,20.1910662 L75.7179981,20.1910662 L75.7179981,25.799066 L75.4113314,25.799066 C71.8433315,21.5163995 66.8473317,19.2737329 61.3406651,19.2737329 C50.9393321,19.2737329 43.3939989,24.6777327 43.3939989,40.4830657 L43.3939989,70.0537316 L59.3019985,70.0537316 L59.3019985,44.4603989 C59.3019985,36.4030658 61.5446651,33.4457325 66.948665,33.4457325 C71.7406649,33.4457325 75.7179981,37.2190657 75.7179981,45.3777322 L75.7179981,70.0537316 L91.727331,70.0537316 Z" id="path26"></path>
            <path d="M149.181063,45.0725322 C149.181063,29.6738659 139.390397,19.2725329 125.72773,19.2725329 C120.018397,19.2725329 115.42773,21.3111995 112.267731,25.0845327 L112.063731,25.0845327 L112.063731,0.00053333332 L96.0530643,0.00053333332 L96.0530643,70.0551982 L112.063731,70.0551982 L112.063731,64.6511984 L112.165064,64.6511984 C115.734397,68.9325316 120.834397,71.0738649 126.442397,71.0738649 C139.390397,71.0738649 149.181063,60.3658652 149.181063,45.0725322 M133.07173,45.0725322 C133.07173,52.1071987 128.481063,56.8991986 122.36373,56.8991986 C116.03973,56.8991986 111.451731,51.9031987 111.451731,45.0725322 C111.451731,37.9325324 116.142397,33.2431992 122.465064,33.2431992 C128.685063,33.2431992 133.07173,38.035199 133.07173,45.0725322"></path>
            <path d="M204.791728,45.0725322 C204.791728,29.6738659 195.003728,19.2725329 181.338395,19.2725329 C175.629062,19.2725329 171.041062,21.3111995 167.878396,25.0845327 L167.674396,25.0845327 L167.674396,0.00053333332 L151.66373,0.00053333332 L151.66373,70.0551982 L167.674396,70.0551982 L167.674396,64.6511984 L167.775729,64.6511984 C171.345062,68.9325316 176.445062,71.0738649 182.053062,71.0738649 C195.003728,71.0738649 204.791728,60.3658652 204.791728,45.0725322 M188.682395,45.0725322 C188.682395,52.1071987 184.091729,56.8991986 177.974396,56.8991986 C171.650396,56.8991986 167.062396,51.9031987 167.062396,45.0725322 C167.062396,37.9325324 171.753062,33.2431992 178.075729,33.2431992 C184.295729,33.2431992 188.682395,38.035199 188.682395,45.0725322"></path>
            <polygon points="207.682661 20.1906662 223.487994 20.1906662 223.487994 95.241331 207.682661 95.241331"></polygon>
            <polygon points="262.84266 70.0534649 253.255994 43.0321323 252.951994 43.0321323 242.855994 70.0534649 226.337328 70.0534649 245.813327 23.5574661 237.146661 0.00146666663 252.951994 0.00146666663 279.15866 70.0534649"></polygon>
            <path d="M274.594393,28.5527993 C274.594393,33.5487992 278.774393,37.8327991 284.078393,37.8327991 C289.177059,37.8327991 293.458393,33.5487992 293.458393,28.5527993 C293.458393,23.3501327 289.177059,19.1727995 284.078393,19.1727995 C278.774393,19.1727995 274.594393,23.3501327 274.594393,28.5527993" id="path44"></path>
        </g>
    </g>
</svg>
